<svg width="100" height="100" viewBox="0 0 100 100" fill="none" xmlns="http://www.w3.org/2000/svg">
<rect width="100" height="100" rx="13" fill="white"/>
<path d="M20.2931 19.9916C19.5349 17.9972 20.2476 17 22.4313 17H29.6648C31.6969 17 33.092 18.0425 33.8502 20.1276L47.7712 57.9763C48.4688 59.9103 48.8783 61.2097 48.9996 61.8745C49.1209 62.5091 49.2574 63.5818 49.409 65.0928H49.591C49.7426 63.5818 49.8791 62.5091 50.0004 61.8745C50.1217 61.2097 50.5312 59.9103 51.2288 57.9763L65.1498 20.1276C65.908 18.0425 67.3031 17 69.3352 17H76.5687C78.7524 17 79.4651 17.9972 78.7069 19.9916L56.9609 78.3285C56.0511 80.7762 54.6256 82 52.6845 82H46.3155C44.3744 82 42.9489 80.7762 42.0391 78.3285L20.2931 19.9916Z" fill="url(#paint0_linear_16_6)"/>
<defs>
<linearGradient id="paint0_linear_16_6" x1="77.5726" y1="49.5" x2="26.6613" y2="49.5" gradientUnits="userSpaceOnUse">
<stop stop-color="#DB2777"/>
<stop offset="1" stop-color="#9333EA"/>
</linearGradient>
</defs>
</svg>